<svg xmlns="http://www.w3.org/2000/svg" xmlns:xlink="http://www.w3.org/1999/xlink" aria-hidden="true" role="img" version="1.1" viewBox="0 0 800 800" width="32" height="32"><defs><linearGradient x1="50%" y1="0%" x2="50%" y2="100%" id="cccloud-grad"><stop stop-color="hsla(202, 92%, 44%, 0.27)" stop-opacity="1" offset="0%"></stop><stop stop-color="hsla(136, 95%, 36%, 0.67)" stop-opacity="1" offset="100%"></stop></linearGradient></defs><g fill="url(#cccloud-grad)" stroke-width="3" stroke="hsla(202, 77%, 54%, 0.27)" id="cloud" transform="matrix(1,0,0,1,30,20)"><path d="M 150 350 A  29 29 0 1 1 207.32984306003118 194.76439781426333 A  29 29 0 1 1 350 200 A  29 29 0 1 1 550 300 A  29 29 0 1 1 600 400 A  29 29 0 1 1 550 500 A  29 29 0 1 1 365.70680655721026 463.61256568291543 A  29 29 0 1 1 150 350 Z" stroke-linecap="round" stroke-linejoin="round"></path></g></svg>
